{"title":"Mickey Virus 2013 Hindi Movies HDDVD x264 New Source with Sample","uid":9267252,"size":735624332,"categoryP":"video","categoryS":"movies","magnet":"?xt=urn:btih:bd95eda19218544eb6f8c50d54328aaef72026d4&amp;dn=Mickey+Virus+2013+Hindi+Movies+HDDVD+x264+New+Source+with+Sample&amp;tr=udp%3A%2F%2Ftracker.openbittorrent.com%3A80&amp;tr=udp%3A%2F%2Fopen.demonii.com%3A1337&amp;tr=udp%3A%2F%2Ftracker.coppersurfer.tk%3A6969&amp;tr=udp%3A%2F%2Fexodus.desync.com%3A6969","seeders":1,"leechers":0,"uploader":"basicssom","files":2,"time":1385716785,"description":" &lt;a href=&quot;http://s5.postimg.org/hgeuxszk7/logo.png&quot; rel=&quot;nofollow&quot; target=&quot;_NEW&quot;&gt;http://s5.postimg.org/hgeuxszk7/logo.png&lt;/a&gt;\n\nMickey Virus 2013 Hindi Movies HDDVD x264 New Source with Sample ~ â˜»rDXâ˜»\n\nPlease check SCREEN SHOTS first :\n &lt;a href=&quot;\nhttp://imageshere.co.nr/2013/12/MickeyVirusDVD/1.html&quot; rel=&quot;nofollow&quot; target=&quot;_NEW&quot;&gt;\nhttp://imageshere.co.nr/2013/12/MickeyVirusDVD/1.html&lt;/a&gt;\n &lt;a href=&quot;\nhttp://imageshere.co.nr/2013/12/MickeyVirusDVD/2.html&quot; rel=&quot;nofollow&quot; target=&quot;_NEW&quot;&gt;\nhttp://imageshere.co.nr/2013/12/MickeyVirusDVD/2.html&lt;/a&gt;\n &lt;a href=&quot;\nhttp://imageshere.co.nr/2013/12/MickeyVirusDVD/3.html&quot; rel=&quot;nofollow&quot; target=&quot;_NEW&quot;&gt;\nhttp://imageshere.co.nr/2013/12/MickeyVirusDVD/3.html&lt;/a&gt;\n &lt;a href=&quot;\nhttp://imageshere.co.nr/2013/12/MickeyVirusDVD/4.html&quot; rel=&quot;nofollow&quot; target=&quot;_NEW&quot;&gt;\nhttp://imageshere.co.nr/2013/12/MickeyVirusDVD/4.html&lt;/a&gt;\n &lt;a href=&quot;\nhttp://imageshere.co.nr/2013/12/MickeyVirusDVD/5.html&quot; rel=&quot;nofollow&quot; target=&quot;_NEW&quot;&gt;\nhttp://imageshere.co.nr/2013/12/MickeyVirusDVD/5.html&lt;/a&gt;\n &lt;a href=&quot;\nhttp://imageshere.co.nr/2013/12/MickeyVirusDVD/6.html&quot; rel=&quot;nofollow&quot; target=&quot;_NEW&quot;&gt;\nhttp://imageshere.co.nr/2013/12/MickeyVirusDVD/6.html&lt;/a&gt;\n\nAll rDX torrents are Seeding From the 1Gbps Seedbox 24X7\n &lt;a href=&quot;\nhttp://users2.jabry.com/myimghost/2013/MickeyVirusDVD/19.jpg&quot; rel=&quot;nofollow&quot; target=&quot;_NEW&quot;&gt;\nhttp://users2.jabry.com/myimghost/2013/MickeyVirusDVD/19.jpg&lt;/a&gt;\n &lt;a href=&quot;\nhttp://users2.jabry.com/myimghost/2013/MickeyVirusDVD/20.jpg&quot; rel=&quot;nofollow&quot; target=&quot;_NEW&quot;&gt;\nhttp://users2.jabry.com/myimghost/2013/MickeyVirusDVD/20.jpg&lt;/a&gt;\n &lt;a href=&quot;\nhttp://users2.jabry.com/myimghost/2013/MickeyVirusDVD/21.jpg&quot; rel=&quot;nofollow&quot; target=&quot;_NEW&quot;&gt;\nhttp://users2.jabry.com/myimghost/2013/MickeyVirusDVD/21.jpg&lt;/a&gt;\n\nFormat                                   : Matroska\nFormat version                           : Version 4 / Version 2\nFile size                                : 691 MiB\nDuration                                 : 2h 11mn\nOverall bit rate                         : 735 Kbps\n\nVideo\nID                                       : 1\nFormat                                   : AVC\nFormat/Info                              : Advanced Video Codec\nFormat profile                           : &lt;a class=&quot;__cf_email__&quot; href=&quot;/cdn-cgi/l/email-protection&quot; data-cfemail=&quot;ade5c4cac5ede19e839d&quot;&gt;[email&amp;#160;protected]&lt;/a&gt;&lt;script cf-hash='f9e31' type=&quot;text/javascript&quot;&gt;\n/* &lt;![CDATA[ */!function(){try{var t=&quot;currentScript&quot;in document?document.currentScript:function(){for(var t=document.getElementsByTagName(&quot;script&quot;),e=t.length;e--;)if(t[e].getAttribute(&quot;cf-hash&quot;))return t[e]}();if(t&amp;&amp;t.previousSibling){var e,r,n,i,c=t.previousSibling,a=c.getAttribute(&quot;data-cfemail&quot;);if(a){for(e=&quot;&quot;,r=parseInt(a.substr(0,2),16),n=2;a.length-n;n+=2)i=parseInt(a.substr(n,2),16)^r,e+=String.fromCharCode(i);e=document.createTextNode(e),c.parentNode.replaceChild(e,c)}}}catch(u){}}();/* ]]&gt; */&lt;/script&gt;\nFormat settings, CABAC                   : Yes\nFormat settings, ReFrames                : 5 frames\nCodec ID                                 : V_MPEG4/ISO/AVC\nDuration                                 : 2h 11mn\nBit rate                                 : 671 Kbps\nWidth                                    : 672 pixels\nHeight                                   : 272 pixels\nDisplay aspect ratio                     : 2.471\nFrame rate mode                          : Constant\nFrame rate                               : 29.970 fps\nColor space                              : YUV\nChroma subsampling                       : 4:2:0\nBit depth                                : 8 bits\nScan type                                : Progressive\nBits/(Pixel*Frame)                       : 0.122\nStream size                              : 617 MiB (89%)\nWriting library                          : x264 core 133 r2334 a3ac64b\nLanguage                                 : English\nDefault                                  : Yes\nForced                                   : No\n\nAudio\nID                                       : 2\nFormat                                   : MPEG Audio\nFormat version                           : Version 2\nFormat profile                           : Layer 3\nMode                                     : Joint stereo\nMode extension                           : MS Stereo\nCodec ID                                 : A_MPEG/L3\nCodec ID/Hint                            : MP3\nDuration                                 : 2h 11mn\nBit rate mode                            : Constant\nBit rate                                 : 64.0 Kbps\nChannel(s)                               : 2 channels\nSampling rate                            : 24.0 KHz\nCompression mode                         : Lossy\nStream size                              : 60.4 MiB (9%)\nWriting library                          : LAME3.99r\nEncoding settings                        : -m j -V 4 -q 2 -lowpass 11 -b 64\nDefault                                  : Yes\nForced                                   : No","torrent":{"xt":"urn:btih:bd95eda19218544eb6f8c50d54328aaef72026d4","amp;dn":"Mickey+Virus+2013+Hindi+Movies+HDDVD+x264+New+Source+with+Sample","amp;tr":["udp%3A%2F%2Ftracker.openbittorrent.com%3A80","udp%3A%2F%2Fopen.demonii.com%3A1337","udp%3A%2F%2Ftracker.coppersurfer.tk%3A6969","udp%3A%2F%2Fexodus.desync.com%3A6969"],"infoHash":"bd95eda19218544eb6f8c50d54328aaef72026d4","infoHashBuffer":{"type":"Buffer","data":[189,149,237,161,146,24,84,78,182,248,197,13,84,50,138,174,247,32,38,212]},"announce":[],"urlList":[]}}